<?xml version="1.0" standalone="no"?>
<!DOCTYPE svg PUBLIC "-//W3C//DTD SVG 1.1//EN" "http://www.w3.org/Graphics/SVG/1.1/DTD/svg11.dtd" >
<!--
2013-9-30: Created.
-->
<svg>
<metadata>
Created by iconfont
</metadata>
<defs>

<font id="iconfont" horiz-adv-x="1024" >
  <font-face
    font-family="iconfont"
    font-weight="500"
    font-stretch="normal"
    units-per-em="1024"
    ascent="896"
    descent="-128"
  />
    <missing-glyph />
    
    <glyph glyph-name="git" unicode="&#59292;" d="M1004.692673 429.603384l-447.094409 447.073929c-25.743103 25.763582-67.501405 25.763582-93.264987 0l-103.873521-103.873521 78.171378-78.171378c12.533635 6.00058 26.562294 9.359266 41.389666 9.359266 53.02219 0 96.00928-42.98709 96.00928-96.00928 0-14.827372-3.358686-28.856031-9.359266-41.389666l127.97824-127.97824c12.533635 6.00058 26.562294 9.359266 41.389666 9.359266 53.02219 0 96.00928-42.98709 96.00928-96.00928s-42.98709-96.00928-96.00928-96.00928-96.00928 42.98709-96.00928 96.00928c0 14.827372 3.358686 28.856031 9.359266 41.389666l-127.97824 127.97824c-3.051489-1.454065-6.184898-2.744293-9.379746-3.870681l0-266.97461c37.273227-13.188988 63.99936-48.721433 63.99936-90.520695 0-53.02219-42.98709-96.00928-96.00928-96.00928s-96.00928 42.98709-96.00928 96.00928c0 41.799262 26.726133 77.331707 63.99936 90.520695l0 266.97461c-37.273227 13.188988-63.99936 48.721433-63.99936 90.520695 0 14.827372 3.358686 28.856031 9.359266 41.389666l-78.171378 78.171378-295.892081-295.871601c-25.743103-25.784062-25.743103-67.542365 0-93.285467l447.114889-447.073929c25.743103-25.743103 67.480925-25.743103 93.264987 0l445.00547 445.00547c25.763582 25.763582 25.763582 67.542365 0 93.285467z"  horiz-adv-x="1025" />

    
    <glyph glyph-name="blogger" unicode="&#58969;" d="M746.500337 451.045999l-39.047318 0c-7.852852 0-14.527878 3.227508-19.806091 9.903557-5.41022 6.588045-8.15882 14.44192-8.15882 23.559579 0 46.332235-16.316617 85.859483-48.950875 118.449739-32.722262 32.67826-72.249511 49.082882-118.581746 49.082882l-100.519368 0c-46.332235 0-85.773526-16.404622-118.449739-49.082882-32.67826-32.590256-49.082882-72.117504-49.082882-118.449739l0-201.01827c0-46.332235 16.404622-85.881996 49.082882-118.559233 32.676214-32.69975 72.117504-48.994877 118.449739-48.994877l201.125717 0c46.334281 0 85.773526 16.295128 118.451786 48.994877 32.67826 32.67826 49.080835 72.226998 49.080835 118.559233L780.094456 417.452903c0 9.140171-3.315512 16.991999-10.033517 23.668049C763.514849 447.686485 755.661997 451.045999 746.500337 451.045999zM388.575458 504.81767c7.066953 8.748245 15.399735 13.154601 25.12933 13.154601l107.281375 0c9.643638 0 18.063401-4.40738 25.131377-13.154601 7.02295-8.834202 10.600429-19.327184 10.600429-31.498388 0-12.08627-3.577478-22.578228-10.600429-31.41243-7.066953-8.834202-15.487739-13.240559-25.131377-13.240559L413.703765 428.666292c-9.729595 0-18.061354 4.40738-25.12933 13.240559-7.068999 8.834202-10.602476 19.327184-10.602476 31.41243C377.971959 485.490485 381.505435 495.983467 388.575458 504.81767zM636.121414 263.18233c-6.719028-8.855692-14.527878-13.263072-23.559579-13.263072L411.435095 249.919259c-9.031701 0-16.97051 4.40738-23.559579 13.263072-6.544043 8.81169-9.903557 19.327184-9.903557 31.498388 0 12.063757 3.359514 22.578228 9.903557 31.41243 6.589069 8.813736 14.527878 13.240559 23.559579 13.240559l201.125717 0c9.031701 0 16.84055-4.426823 23.559579-13.240559 6.544043-8.834202 9.903557-19.348674 9.903557-31.41243C646.024971 282.509515 642.664434 271.995043 636.121414 263.18233zM780.093433 830.786743 243.903497 830.786743c-98.642624 0-178.61298-80.101339-178.61298-178.744987l0-536.105001c0-98.730629 79.969333-178.722474 178.61298-178.722474l536.190959 0c98.642624 0 178.615027 79.991846 178.615027 178.722474L958.709483 652.041756C958.70846 750.68438 878.73708 830.786743 780.093433 830.786743zM869.401458 160.612257c0-74.015737-59.989279-133.983527-134.069485-133.983527L288.667004 26.62873c-74.082252 0-134.115534 59.96779-134.115534 133.983527l0 446.775486c0 74.015737 60.033281 133.961014 134.115534 133.961014l446.664969 0c74.080206 0 134.069485-59.945277 134.069485-133.961014L869.401458 160.612257z"  horiz-adv-x="1024" />

    
    <glyph glyph-name="Adobe-Dreamweaver" unicode="&#59080;" d="M64 823.2v-873.8h896.2V823.2H64z m37.3-37.3h821.5v-799.1H101.3V785.9z m79.4-168.5c0 3.1 0.6 4.4 4.3 5 14.2 0.6 54.9 1.9 97 1.9 125.1 0 187.3-80.7 187.3-199 0-164.5-107.9-214.3-191-214.3-31.4 0-77.1 0.6-93.7 1.2-2.4 0-3.7 1.9-3.7 4.9V617.5l-0.2-0.1z m67.2-346.1c10.4-0.7 19.7-1.3 31.4-1.3 69 0 120.1 48.7 120.8 153.4 0.8 102.3-52.3 141.7-118.1 141.7-13 0-23.4-0.8-33.9-1.4v-292.6l-0.2 0.2z m473.8-58.6c-4.3 0-5.5 1.7-6.2 5.3-18.5 102.9-33.9 175.6-40.7 226.1h-0.6c-8-45.8-22.8-121.6-47.4-227-1.2-3.7-2.5-4.7-5.5-4.7h-60.4c-4.3 0-5.5 0.6-6.7 4.3l-66 294.3c-0.6 2.5 0.7 5 4.4 5H553c2.5 0 4.3-0.9 4.9-3.4 23.4-132.4 33.2-201 37-228.2h2.5c4.3 32 17.3 98.8 44.9 227 1.2 3.7 1.2 4.6 4.9 4.6h63.5c3.1 0 3.7-1.5 4.3-4.6 21.6-121.3 35.7-197.9 39.4-228.7h1.9c6 39.4 14.2 92.6 40.5 229.4 0.6 2.5 1.2 3.9 4.3 3.9h56.8c2.5 0 4.3-1.2 3.1-4.3L787.7 217c-0.6-3.1-1.1-4.3-5.5-4.3h-60.5z"  horiz-adv-x="1024" />

    
    <glyph glyph-name="Adobe-Photoshop" unicode="&#59083;" d="M64 823.4v-873.8h896.2V823.4H64z m37.3-37.3h821.5V-13H101.3V786.1z m179.3-167.3c0 2.5 5.2 4.3 8.4 4.3 24.1 1.2 59.3 1.9 96.3 1.9C488.7 625 529 568.2 529 495.6c0-94.9-68.8-135.5-153.2-135.5-14.2 0-19 0.6-28.9 0.6v-143.5c0-3.1-1.2-4.3-4.3-4.3h-57.7c-3.1 0-4.3 1.1-4.3 4.2V618.8z m66.3-198.4c8.6-0.6 15.4-0.6 30.2-0.6 43.7 0 84.8 15.4 84.8 74.5 0 47.4-29.3 71.5-79.2 71.5-14.8 0-28.9-0.6-35.7-1.2v-144.3l-0.1 0.1z m321.4 44.4c-29.6 0-39.4-14.8-39.4-27.1 0-13.6 6.7-22.8 46.2-43.1 58.6-28.4 77-55.5 77-95.5 0-59.7-45.6-91.9-107.2-91.9-32.7 0-60.5 6.8-76.5 16-2.4 1.2-3 3.1-3 6.2v54.8c0 3.7 1.8 5 4.3 3.1 23.3-15.4 50.5-22.2 75.1-22.2 29.6 0 41.9 12.3 41.9 29 0 13.6-8.6 25.3-46.2 45-53 25.4-75.2 51.2-75.2 94.4 0 48.1 37.6 88.1 102.9 88.1 32.1 0 54.7-4.9 67-10.4 3.1-1.9 3.7-4.9 3.7-7.4v-51.2c0-3.1-1.9-5-5.6-3.7-16.6 9.9-41.1 16-65.1 16l0.1-0.1z"  horiz-adv-x="1024" />

    
    <glyph glyph-name="Bootstrap" unicode="&#59092;" d="M960 85.4c0-82.1-67.2-149.3-149.3-149.3H213.4C131.2-64 64 3.2 64 85.4V682.6C64 764.8 131.2 832 213.4 832h597.3C892.8 832 960 764.8 960 682.6v-597.2zM296 644.8h253.8c46.7 0 84.9-10.3 112.9-32.7 28-22.4 42-54.1 42-97.1 0-26.1-6.5-48.5-19.6-67.2-13.1-18.7-31.7-33.6-55.1-43.9v-1.9c32.7-6.5 56.9-22.4 72.8-45.7 16.8-23.3 25.2-53.2 25.2-88.7 0-20.5-3.7-40.1-11.2-56.9-7.5-17.7-18.7-33.6-34.5-45.7-15.9-13.1-35.5-23.3-59.7-30.8-24.3-7.5-53.2-11.2-86.8-11.2H296V644.8z m91.4-218.3h149.3c22.4 0 40.1 6.5 55.1 18.7 14.9 12.1 22.4 30.8 22.4 54.1 0 26.1-6.5 44.8-19.6 56-13.1 10.3-32.7 15.9-56.9 15.9H388.3l-0.9-144.7z m0-229.6h161.5c28 0 49.5 7.5 64.4 21.5s23.3 34.5 23.3 61.6c0 26.1-7.5 45.7-23.3 59.7-15.9 14-37.3 20.5-64.4 20.5H387.4v-163.3z"  horiz-adv-x="1024" />

    
    <glyph glyph-name="GitHub" unicode="&#59093;" d="M64.6 384c0-195.6 125.4-361.9 300.1-422.9 23.5-5.9 19.9 10.8 19.9 22.2v77.6c-135.8-15.9-141.3 74-150.5 89-18.5 31.5-61.9 39.5-49 54.5 31 15.9 62.5-4 98.9-58 26.4-39.1 77.9-32.5 104.1-26 5.7 23.5 17.9 44.5 34.7 60.9-140.7 25.2-199.4 111.1-199.4 213.3 0 49.5 16.4 95.1 48.4 131.8-20.4 60.6 1.9 112.4 4.9 120.1 58.2 5.2 118.5-41.6 123.3-45.3 33.1 8.9 70.8 13.7 112.9 13.7 42.4 0 80.3-4.9 113.5-13.9 11.3 8.6 67.3 48.8 121.4 43.9 2.9-7.7 24.7-58.3 5.5-118.1 32.5-36.8 49-82.8 49-132.4 0-102.3-59-188.3-200.2-213.2 23.5-23.3 38.1-55.5 38.1-91.1v-112.7c0.8-9 0-17.9 15.1-17.9C832.7 19 960.4 186.6 960.4 383.9c0 247.5-200.6 447.9-447.9 447.9C265 831.9 64.6 631.5 64.6 384z"  horiz-adv-x="1024" />

    
    <glyph glyph-name="Microsoft-Excel" unicode="&#59094;" d="M943.5 716.3H643.2v-55.6h88.5v-87.9h-88.5v-28h88.5v-88h-88.5V428h88.5v-83.2h-88.5v-33.4h88.5V228h-88.5v-33.4h88.5v-83.9h-88.5v-61.2h300.3c4.7 1.4 8.7 7 11.9 16.7 3.2 9.8 4.8 17.7 4.8 23.8V706.2c0 4.8-1.6 7.7-4.8 8.7-3.9 1-7.9 1.5-11.9 1.4z m-39-605.5h-144v83.8h144.1l-0.1-83.8z m0 117.2h-144v83.5h144.1l-0.1-83.5z m0 116.8h-144v82.9h144.1l-0.1-82.9z m0 112h-144v87.9h144.1l-0.1-87.9z m0 116.5h-144v87.4h144.1v-88l-0.1 0.6zM63.8 730.2v-694.7L592.7-56V824L63.8 729.9v0.3z m313.5-525.5c-2 5.5-11.5 28.6-28.3 69.6-9.7 23.9-19.7 47.8-29.8 71.6h-0.9l-56.7-135-75.8 5.1 89.8 168-82.4 168 77.3 4.1 51.1-131.5h1l57.7 137.5 79.9 5-95.1-181.9 98-185.5-85.8 5z"  horiz-adv-x="1024" />

    
    <glyph glyph-name="Microsoft-Powerpoint" unicode="&#59095;" d="M940.9 682.7h-319v-119c19.2 14.6 42.3 22 69.3 22V470H806c-0.6-32.4-11.8-59.8-33.6-81.9s-49.2-33.5-81.7-34.2c-24.6 0.5-48.4 8.5-68.3 23v-79.5h250.9v-39h-251v-48.3H873v-38.5H622.1v-87.4h319c12.9 0 19 6.8 19 20.1V663.7c0 12.8-6.1 19-19 19h-0.2zM709.2 489.1V605.7c32.5-0.7 59.7-12 81.7-34 21.9-22 33.3-49.5 33.8-82.7l-115.5 0.1z m-336.9-2c-1.5 6.7-4.9 12.8-9.8 17.6-5.1 4.5-11.4 7.7-18 9.2-8.4 2.3-17.1 3.4-25.8 3.4l-26.9-0.5v-112h1c9.7-0.6 20-0.6 30.8 0 10.6 0.5 20.9 3.4 30.2 8.4 11.7 8.4 18.7 19.6 20.9 34.1 2.2 14.6 1.5 28.6-2.4 41.5v-1.7zM64 717.9v-670.1l511.1-88.3V808.6L64 717.9z m381.3-302c-14-32.4-34.9-53.2-62.9-62.2-29.3-9.1-60.1-12.6-90.7-10.4v-127.8l-67.2 7.8V574.4l106.8 5.6c19.7 1.3 39.5-1 58.5-6.7 19.2-5.7 34.4-17.1 45.7-34.4 11.2-17.2 17.5-37.2 19-59.9 1.6-21.5-1.6-43-9.2-63.1z"  horiz-adv-x="1024" />

    
    <glyph glyph-name="Microsoft-Word" unicode="&#59096;" d="M960.2 692.7v-617.9c0-5.3-1.9-9.5-5.6-12.9-3.6-3.4-8.5-5.3-13.4-5.2H621.6v85.7h260.7v39h-261v47.8H882v39H621.5v48.2h260.6v38.5H621.5v48.3h260.6v39H621.5V490h260.6v38.9H621.5v48.7h260.6v37.1H621.5v96.8h319.7c5.6 0 10.1-1.8 13.4-5.6 3.9-3.6 5.6-8.1 5.6-13.2zM573.7 808.2v-848.5L64 47.9V717.6l509.7 90.7v-0.1z m-76.9-250.5l-63.8-3.9-40.9-253.4h-0.9c-2 12-9.5 54-23 125.7L344.3 548l-59.9-3-24-118.9c-8.2-40.2-16.2-80.5-23.9-120.8h-0.5l-36.4 233.4-54.9-2.9 58.8-294.4 61-3.9 23 114.6c13.4 67.2 21.3 106.3 23 117h1.7c2.3-11.4 9.6-51.3 23-119.9l23-117.9 66.1-3.9 73.9 330.5-1.4-0.2z"  horiz-adv-x="1024" />

    
    <glyph glyph-name="JavaScript" unicode="&#59140;" d="M63.5 832.5h897v-897h-897v897zM887 149.4c-6.5 40.9-33.2 75.3-112.2 107.4-27.5 12.9-58.1 21.9-67.2 42.6-3.4 12.3-3.9 19.1-1.7 26.4 5.6 24.1 34.2 31.4 56.6 24.7 14.6-4.5 28-15.7 36.5-33.6 38.6 25.3 38.6 25.3 65.6 42-10.1 15.7-15.1 22.5-21.9 29.2-23.5 26.3-54.9 39.8-105.9 38.6l-26.4-3.3c-25.3-6.2-49.3-19.6-63.9-37.6-42.6-48.3-30.3-132.3 21.3-167.1 51-38.1 125.6-46.5 135.2-82.4 9-43.7-32.5-57.7-73.5-52.7-30.3 6.7-47.1 21.9-65.6 49.9l-68.4-39.3c7.8-17.9 16.8-25.8 30.3-41.4 65-65.6 227.6-62.3 256.8 37.5 1.1 3.4 9 26.4 2.8 61.7l1.6-2.6zM551.3 420.2h-84c0-72.4-0.3-144.4-0.3-217 0-46 2.4-88.3-5.2-101.3-12.3-25.8-44.1-22.5-58.5-17.9-14.8 7.3-22.3 17.4-31 32-2.4 3.9-4.1 7.3-4.7 7.3l-68.2-42c11.4-23.5 28-43.8 49.5-56.7 32-19.1 74.9-25.2 119.9-15.1 29.3 8.4 54.5 25.8 67.7 52.7 19.1 34.8 15 77.4 14.8 125.1 0.4 76.8 0 153.6 0 230.9v2z"  horiz-adv-x="1024" />

    
    <glyph glyph-name="CSS" unicode="&#59141;" d="M512 384zM128.3 831.7l69.8-805.8 313.4-89.5L825.8 26l69.9 805.7H128.3z m580.9-669.3l-197.1-56.2-196.8 56.5L301.9 318h96.4l6.9-79.1 107.1-30.3 0.3-0.5h0.1l106.9 29.7L630.7 366H406.1l-8 99.9h241.1l8.8 101.9H280.2l-8 97.9H753l-43.8-503.3z"  horiz-adv-x="1024" />

    
    <glyph glyph-name="HTML" unicode="&#59142;" d="M116.7 832.2l71.9-806.9 322.8-89.6 323.7 89.8 72.1 806.7H116.7z m634-263.9H372l9-101.3h360.7l-27.2-303.8-203-56.3-202.7 56.3-13.9 155.4h99.4l7.1-79 110.2-29.7 0.3 0.1L622 239.7 633.5 368h-343l-26.7 299.2h495.7l-8.8-98.9z"  horiz-adv-x="1024" />

    
    <glyph glyph-name="webstorm" unicode="&#59155;" d="M709.30958866-39.12328769999999c10.87397227 13.66438359 23.73698672 28.57808232 38.96301445 46.14246563l7.58219151 8.74931485c9.48493125 10.94794541 17.36712334 19.4054792 24.93698643 27.60821982 15.05753437 16.2410959 28.08493154 30.25479463 51.87945146 62.6465751 23.34657568 31.80410948 38.4287669 55.73835615 35.96712363 96.77260283-1.19589082 21.11917852-2.03835586 35.61369873-15.81369873 52.62739717-8.27671201 10.19999971-23.64246562 25.03150664-39.93698584 40.72191767-17.63013692 17.00958867-32.97123281 33.19315049-53.75342461 54.85068546-20.79862998 21.57123252-47.68767158 76.74657539-47.68767158 76.7465745-8.00547979 18.26301357-22.9643833 56.18630127-27.13150722 91.44657598L623.2178079 832.52054766H449.11095868L363.9356161 437.36712334 288.51232899 832.52054766H82.99999999l185.40410976-897.73150693h173.10821924l86.53972588 388.59863026 76.53698613-388.59863026h80.36301357l24.35753409 26.08767158M1071.63561668 778.79589053c18.18082178 21.07808262 33.16438388 38.16164355 45.46438331 53.66712304h-276.12328799c-16.43835586-20.97945175-49.78767129-61.42191768-68.83972559-97.29041045-25.1589041-47.49041075-45.85890411-83.11643877-47.91369902-170.54383622l0.92876748-28.15890381c0-41.67945175 29.80273974-102.87534287 29.80273975-102.87534288 4.66027383-10.84931543 20.43287666-33.81369873 30.52191797-47.78630068h-0.25479493a743.25205459 743.25205459 0 0 1 5.51917793-7.26164385c29.75753408-34.09726026 74.78630156-72.20136972 94.67260312-96.66986308 23.24383594-28.68082207 23.8643833-55.61095869 25.11780821-76.54931543 3.36164414-56.59726026-19.53287666-90.70684893-44.01780821-124.12602774-37.03561612-50.50273974-50.37534229-59.86027354-78.8835621-92.87260224-18.18082178-21.04931513-33.15205459-38.10410948-45.4643833-53.53972647h285.3c16.73013692 21.47260253 40.55342432 61.12602773 59.67534287 97.22054795 25.1589041 47.49041075 45.88767158 83.12054766 47.91369815 170.46164443l-0.92876661 28.18356153c0 41.74931513-29.80273974 102.96164356-29.80273974 102.96164355-4.65616406 10.84931543-20.44520508 33.67397286-30.55068545 47.78630156h0.25479492c-3.23835644 4.33561641-5.49041133 7.23287637-5.49041133 7.23287638-29.75753408 34.12191797-74.81506817 72.17260312-94.67260225 96.66986308-23.24383594 28.75068457-23.8643833 55.63972617-25.1178082 76.56575361-3.36164414 56.53972617 19.53287666 90.70274003 44.04657481 124.12191797 37.01917793 50.37534229 50.34657568 59.83150693 78.8424662 92.80273975"  horiz-adv-x="1197" />

    
    <glyph glyph-name="github" unicode="&#61876;" d="M347.8 101.2c0-4-4.6-7.2-10.4-7.2-6.6-0.6-11.2 2.6-11.2 7.2 0 4 4.6 7.2 10.4 7.2 6 0.6 11.2-2.6 11.2-7.2z m-62.2 9c-1.4-4 2.6-8.6 8.6-9.8 5.2-2 11.2 0 12.4 4s-2.6 8.6-8.6 10.4c-5.2 1.4-11-0.6-12.4-4.6z m88.4 3.4c-5.8-1.4-9.8-5.2-9.2-9.8 0.6-4 5.8-6.6 11.8-5.2 5.8 1.4 9.8 5.2 9.2 9.2-0.6 3.8-6 6.4-11.8 5.8zM505.6 880C228.2 880 16 669.4 16 392c0-221.8 139.6-411.6 339-478.4 25.6-4.6 34.6 11.2 34.6 24.2 0 12.4-0.6 80.8-0.6 122.8 0 0-140-30-169.4 59.6 0 0-22.8 58.2-55.6 73.2 0 0-45.8 31.4 3.2 30.8 0 0 49.8-4 77.2-51.6 43.8-77.2 117.2-55 145.8-41.8 4.6 32 17.6 54.2 32 67.4-111.8 12.4-224.6 28.6-224.6 221 0 55 15.2 82.6 47.2 117.8-5.2 13-22.2 66.6 5.2 135.8 41.8 13 138-54 138-54 40 11.2 83 17 125.6 17s85.6-5.8 125.6-17c0 0 96.2 67.2 138 54 27.4-69.4 10.4-122.8 5.2-135.8 32-35.4 51.6-63 51.6-117.8 0-193-117.8-208.4-229.6-221 18.4-15.8 34-45.8 34-92.8 0-67.4-0.6-150.8-0.6-167.2 0-13 9.2-28.8 34.6-24.2C872.4-19.6 1008 170.2 1008 392 1008 669.4 783 880 505.6 880zM210.4 190.2c-2.6-2-2-6.6 1.4-10.4 3.2-3.2 7.8-4.6 10.4-2 2.6 2 2 6.6-1.4 10.4-3.2 3.2-7.8 4.6-10.4 2z m-21.6 16.2c-1.4-2.6 0.6-5.8 4.6-7.8 3.2-2 7.2-1.4 8.6 1.4 1.4 2.6-0.6 5.8-4.6 7.8-4 1.2-7.2 0.6-8.6-1.4z m64.8-71.2c-3.2-2.6-2-8.6 2.6-12.4 4.6-4.6 10.4-5.2 13-2 2.6 2.6 1.4 8.6-2.6 12.4-4.4 4.6-10.4 5.2-13 2z m-22.8 29.4c-3.2-2-3.2-7.2 0-11.8 3.2-4.6 8.6-6.6 11.2-4.6 3.2 2.6 3.2 7.8 0 12.4-2.8 4.6-8 6.6-11.2 4z"  horiz-adv-x="1024" />

    
    <glyph glyph-name="Vue" unicode="&#59289;" d="M615.6 772.4h165.5L512 306.29999999999995 242.9 772.4H63.5L512-4.399999999999977l448.5 776.9zM781.1 772.4H615.6L512 593 408.4 772.4H242.9L512 306.29999999999995z"  horiz-adv-x="1024" />

    
    <glyph glyph-name="jQuery" unicode="&#59290;" d="M121.3 612.7c-79.3-113.9-69.5-262-8.8-383 1.4-2.9 2.9-5.7 4.4-8.5 0.9-1.9 1.8-3.7 2.9-5.6 0.5-1 1.1-2.1 1.8-3.1l3-5.7 5.9-9.9c1.1-1.8 2.1-3.6 3.4-5.5 2-3.5 4.5-7 6.6-10.5 1-1.5 1.9-2.9 2.9-4.4 4.1-6.5 8-11.9 12-17.1l-0.4 0.6c2.9-4 5.8-7.9 9-11.8 1-1.4 2.1-2.8 3.2-4.3l8.3-10.1c1-1.1 2-2.5 3.1-3.7 3.7-4.4 7.5-8.7 11.4-13 0-0.1 0.1-0.1 0.2-0.3 4.8-6.1 10-11.5 15.7-16.3l0.2-0.1c3-3.1 6-6.1 9.2-9.1l3.8-3.6c4.1-3.9 8.3-7.8 12.7-11.5 0.1 0 0.1-0.1 0.2-0.1l2.1-1.9c3.8-3.3 7.6-6.6 11.6-9.7l4.7-3.9c3.2-2.5 6.5-5 9.7-7.5l5.1-3.9c3.5-2.6 7.2-5.2 10.7-7.7 1.3-0.9 2.6-1.9 3.9-2.7l1.1-0.9 10.5-6.9 4.5-3c5.5-3.5 11-6.8 16.4-10.1 1.6-0.8 3.1-1.7 4.6-2.5 4-2.3 8.2-4.7 12.3-6.8 2.2-1.3 4.6-2.4 6.9-3.5 2.8-1.6 5.7-3.1 8.7-4.7 0.7-0.2 1.5-0.5 2.2-0.9h-0.1c1.2-0.6 2.4-1.1 3.6-1.8 4.5-2.2 9.2-4.4 14-6.5 0.9-0.4 1.9-0.8 2.8-1.3 5.4-2.4 10.8-4.6 16.3-6.8 1.3-0.4 2.6-1 3.9-1.5 5-1.9 10.2-3.8 15.3-5.7l1.9-0.7c5.7-1.9 11.3-3.8 17.1-5.6 1.3-0.4 2.7-0.9 4.1-1.2 5.9-1.8 11.7-3.9 17.7-5.1 383.1-69.8 494.5 230.3 494.5 230.3C844.2 72 678.2 39.9 521 75.6c-5.8 1.3-11.7 3.2-17.5 4.9-8.3 2.4-16.6 5-24.7 7.8l3.5-1.1-2.3 0.9c-5.1 1.7-10 3.6-14.9 5.5-1.2 0.5-2.4 1-3.7 1.4l-0.4 0.1c-5.5 2.2-10.8 4.5-16.1 6.8-1.1 0.4-2.1 0.9-3.3 1.3-6.3 2.7-12.5 5.6-18.6 8.6l5.2-2.3c-1.4 0.6-2.6 1.2-3.9 1.9-3.5 1.7-7 3.5-10.4 5.3-2.6 1.2-5.2 2.6-7.7 4l0.8-0.4c-4.2 2.2-8.4 4.7-12.7 7-1.3 0.9-2.7 1.7-4.2 2.5-6.3 3.7-12.6 7.5-18.7 11.5l2.4-1.4c-1.6 1-3.1 2-4.6 3.1l0.2-0.2c-4.2 2.6-8.3 5.3-12.3 8.1l0.7-0.5c-1.3 0.9-2.5 1.8-3.8 2.7-4.8 3.3-8.3 5.9-11.9 8.6l0.9-0.6c-1.6 1.3-3.2 2.5-4.9 3.7-3.3 2.6-6.6 5-9.9 7.8l-4.4 3.5c-4.9 3.9-8.9 7.4-12.9 10.9l0.4-0.4c-0.4 0.4-0.9 0.8-1.3 1.1l-13 11.8-3.7 3.5c-3.1 3.1-6.2 6.1-9.3 9.2l-3.6 3.7c-3.9 3.8-7.6 7.8-11.3 11.8l-0.2 0.3-0.6 0.6c-4 4.4-7.8 8.8-11.7 13.2-1 1.1-1.9 2.4-3 3.6l-8.4 10.3c-3.8 4.8-7.5 9.7-11.2 14.6l-1.5 2.1c-87.2 119.1-118.7 283.3-49 418.1l-62.2-77.8zM367.3 708.6c-57.5-82.5-54.2-192.8-9.5-280 8.3-16.4 16.7-30.2 26-43.3l-0.7 1.1c8.6-12.3 18.1-26.9 29.6-36.8 4.1-4.6 8.4-9.1 12.9-13.4l3.4-3.4c4.3-4.1 8.6-8.1 13.1-12.1l0.6-0.5c4.5-3.9 9.5-8.1 14.7-12.2l0.8-0.6c1.3-0.9 2.4-1.9 3.6-2.7 5.2-4 10.5-7.9 15.9-11.8l0.6-0.3c2.3-1.7 4.8-3.2 7.4-4.8 1-0.7 2.2-1.6 3.4-2.2 3.9-2.5 7.8-4.9 11.8-7.4l1.8-0.9c3.4-2 7-4 10.5-5.9 1.2-0.8 2.4-1.3 3.7-2 2.5-1.2 5-2.5 7.4-3.8l1.2-0.5c5-2.5 10.2-4.8 15.2-7.1 5.3-2.3 10.6-4.5 16-6.6 1.9-0.6 3.6-1.4 5.4-1.9 3.8-1.4 7.8-2.7 11.6-4l5.2-1.7c5.5-1.7 11-3.9 16.7-4.8 295.7-49 364.2 178.8 364.2 178.8-61.6-88.7-180.9-131-308.1-98-6.3 1.6-12.6 3.4-18.8 5.5l2.1-0.6c-1.8 0.5-3.4 1-5.1 1.6-3.9 1.3-7.9 2.7-11.7 4.1l-5.4 2c-4.2 1.7-8.4 3.2-12.5 5-1.3 0.6-2.4 0.9-3.4 1.5-5.2 2.4-10.5 4.7-15.6 7.2l-7.7 4-4.5 2.2c-3.4 1.8-6.6 3.7-9.9 5.6-0.8 0.4-1.6 0.8-2.4 1.3l0.1-0.1c-3.9 2.5-8.1 4.8-11.8 7.4-1.3 0.7-2.4 1.6-3.6 2.3l-7.8 5.1c-5.4 3.7-10.6 7.8-15.9 11.7-1.2 1.1-2.4 2-3.5 2.9-55.9 43.9-100 104-120.9 172.1-22 70.7-17.2 150 20.9 214.4l-47-66.4zM574.1 780.3C540.2 730.6 537 668.8 560.3 614c24.8-58.3 75.5-104 134.6-125.7 2.4-0.9 4.8-1.7 7.3-2.6l3.3-1c3.4-1.1 6.9-2.4 10.4-3.1 163.4-31.5 207.6 83.9 219.5 100.8-38.9-55.9-104.2-69.3-184.2-49.8-7 1.7-13.8 3.8-20.5 6.4l1.2-0.4c-8.3 2.9-16.5 6.3-24.4 10.1l1.4-0.6c-14.4 7-28.2 15.4-40.9 25.1l0.6-0.4c-71.7 54.3-116.1 158-69.3 242.4l-25.2-34.9z"  horiz-adv-x="1024" />

    
    <glyph glyph-name="Nodejs" unicode="&#59291;" d="M506.9 109.6c-3 0-5.9 0.8-8.5 2.3l-27 16c-4 2.3-2.1 3.1-0.7 3.5 5.4 1.9 6.5 2.3 12.2 5.6 0.6 0.3 1.4 0.2 2-0.1l20.8-12.3c0.7-0.4 1.8-0.4 2.5 0l80.9 46.7c0.7 0.4 1.2 1.3 1.2 2.2v93.4c0 0.9-0.5 1.8-1.3 2.2l-80.9 46.7c-0.7 0.4-1.7 0.4-2.5 0L424.8 269c-0.8-0.4-1.3-1.3-1.3-2.2v-93.4c0-0.9 0.5-1.7 1.3-2.2l22.2-12.8c12-6 19.4 1.1 19.4 8.2v92.2c0 1.3 1 2.3 2.3 2.3h10.2c1.3 0 2.3-1 2.3-2.3v-92.2c0-16-8.7-25.3-24-25.3-4.7 0-8.4 0-18.7 5.1l-21.2 12.2c-5.2 3-8.5 8.7-8.5 14.8v93.4c0 6.1 3.2 11.7 8.5 14.7l81 46.7c5.1 2.9 11.9 2.9 17 0l80.9-46.7c5.2-3 8.5-8.7 8.5-14.7v-93.4c0-6.1-3.3-11.7-8.5-14.7L515.3 112c-2.5-1.6-5.5-2.3-8.4-2.4M531.9 174c-35.4 0-42.8 16.3-42.8 29.9 0 1.3 1 2.3 2.3 2.3h10.5c1.2 0 2.1-0.8 2.3-2 1.6-10.6 6.3-16 27.7-16 17.1 0 24.3 3.9 24.3 12.9 0 5.2-2.1 9.1-28.6 11.7-22.2 2.2-35.9 7.1-35.9 24.8 0 16.3 13.8 26 36.8 26 25.9 0 38.7-9 40.4-28.3 0.1-0.7-0.2-1.3-0.6-1.8-0.4-0.5-1.1-0.7-1.7-0.7h-10.5c-1.1 0-2 0.8-2.3 1.8-2.5 11.2-8.6 14.8-25.3 14.8-18.6 0-20.8-6.5-20.8-11.3 0-5.9 2.6-7.6 27.7-10.9 24.9-3.3 36.7-8 36.7-25.4 0-17.6-14.7-27.7-40.3-27.7m98.5 98.8h2.7c2.2 0 2.7 1.6 2.7 2.5 0 2.4-1.6 2.4-2.6 2.4h-2.8v-4.9z m-3.3 7.6h6c2.1 0 6.1 0 6.1-4.6 0-3.2-2.1-3.9-3.3-4.3 2.4-0.2 2.6-1.7 2.9-4 0.2-1.4 0.4-3.8 0.9-4.6h-3.7c-0.1 0.8-0.7 5.3-0.7 5.5-0.2 1-0.6 1.5-1.8 1.5h-3.1v-7H627v17.5z m-7.2-8.7c0-7.3 5.9-13.1 13-13.1 7.3 0 13.1 6 13.1 13.1 0 7.3-5.9 13-13.1 13-7.1 0.1-13.1-5.6-13-13m28.6 0c0-8.6-7-15.6-15.6-15.6-8.5 0-15.6 6.9-15.6 15.6 0 8.8 7.3 15.6 15.6 15.6 8.4 0 15.6-6.8 15.6-15.6M256.3 475c0 3.7-2 7.1-5.2 9l-85.8 49.4c-1.4 0.9-3.1 1.3-4.7 1.4h-0.9c-1.6-0.1-3.3-0.5-4.7-1.4L69.2 484c-3.2-1.9-5.2-5.3-5.2-9l0.2-133c0-1.8 1-3.6 2.6-4.5 1.6-1 3.6-1 5.1 0l51 29.2c3.2 1.9 5.2 5.3 5.2 9v62.1c0 3.7 2 7.1 5.2 9l21.7 12.5c1.6 0.9 3.4 1.4 5.2 1.4 1.8 0 3.6-0.5 5.2-1.4l21.7-12.5c3.2-1.8 5.2-5.3 5.2-9v-62.1c0-3.7 2-7.1 5.2-9l51-29.2c1.6-1 3.6-1 5.2 0 1.6 0.9 2.6 2.6 2.6 4.5V475z m404.8-69.2c0-0.9-0.5-1.8-1.3-2.2l-29.5-17c-0.8-0.5-1.8-0.5-2.6 0l-29.5 17c-0.8 0.5-1.3 1.3-1.3 2.2v34c0 0.9 0.5 1.8 1.3 2.2l29.5 17c0.8 0.5 1.8 0.5 2.6 0l29.5-17c0.8-0.5 1.3-1.3 1.3-2.2v-34z m8 251.9c-1.6 0.9-3.6 0.9-5.2-0.1-1.6-0.9-2.6-2.6-2.6-4.5v-131.7c0-1.3-0.7-2.5-1.8-3.1-1.1-0.6-2.5-0.6-3.6 0l-21.5 12.4c-3.2 1.9-7.1 1.9-10.4 0l-85.8-49.5c-3.2-1.8-5.2-5.3-5.2-9v-99.1c0-3.7 2-7.1 5.2-9l85.8-49.6c3.2-1.8 7.1-1.8 10.4 0l85.8 49.6c3.2 1.9 5.2 5.3 5.2 9V620.2c0 3.8-2 7.2-5.3 9.1l-51 28.4z m285.7-217c3.2 1.9 5.2 5.3 5.2 9v24c0 3.7-2 7.1-5.2 9l-85.3 49.5a10.2 10.2 0 0 1-10.4 0l-85.8-49.5c-3.2-1.9-5.2-5.3-5.2-9v-99c0-3.7 2-7.2 5.2-9l85.3-48.6c3.1-1.8 7-1.8 10.2-0.1l51.6 28.7c1.6 0.9 2.7 2.6 2.7 4.5s-1 3.6-2.6 4.5l-86.3 49.5c-1.6 0.9-2.6 2.6-2.6 4.5v31.1c0 1.9 1 3.6 2.6 4.5l26.9 15.5c1.6 0.9 3.6 0.9 5.2 0l26.9-15.5c1.6-0.9 2.6-2.6 2.6-4.5v-24.4c0-1.8 1-3.6 2.6-4.5 1.6-0.9 3.6-0.9 5.2 0l51.2 29.8zM863.1 445.3c0.6 0.4 1.4 0.4 2 0l16.5-9.5c0.6-0.4 1-1 1-1.7v-19c0-0.7-0.4-1.4-1-1.7l-16.5-9.5c-0.6-0.4-1.4-0.4-2 0l-16.5 9.5c-0.6 0.4-1 1-1 1.7v19c0 0.7 0.4 1.4 1 1.7l16.5 9.5zM487.5 480.4l-0.2 0.2c-0.1 0.1-0.2 0.2-0.4 0.3-0.2 0.2-0.5 0.4-0.7 0.6-0.1 0.1-0.1 0.1-0.2 0.1l-0.9 0.6-55.9 32.3-8.9 5.1-20.6 11.9c-0.9 0.5-1.8 0.8-2.7 1.1-0.8 0.2-1.6 0.3-2.4 0.3H393.6h-0.1c-0.2 0-0.4-0.1-0.6-0.1-0.2 0-0.4-0.1-0.5-0.1-0.2-0.1-0.5-0.1-0.7-0.2-0.1 0-0.3-0.1-0.4-0.1-0.3-0.1-0.5-0.2-0.7-0.3h-0.1c-0.3-0.1-0.6-0.3-0.9-0.5l-65.8-38-19.3-11.1-0.2-0.1c-3.2-1.8-5.2-5.2-5.2-8.9v-98.6c0-2.3 0.8-4.5 2.1-6.3 0.2-0.3 0.5-0.6 0.8-0.9l0.2-0.2c0.2-0.2 0.5-0.4 0.7-0.7l0.2-0.2c0.3-0.3 0.7-0.5 1.1-0.7l74.4-43 11-6.3c0.9-0.5 1.8-0.9 2.8-1.1 0.2 0 0.4-0.1 0.5-0.1 0.3 0 0.5-0.1 0.8-0.1 0.3 0 0.5 0 0.8-0.1h0.3c0.4 0 0.7 0 1.1 0.1h0.4c0.3 0 0.6 0.1 0.9 0.2 0.1 0 0.2 0 0.3 0.1h0.2l0.9 0.3c0.1 0 0.1 0 0.2 0.1l1.2 0.6 85.3 49.3c2.6 1.5 4.4 4.2 5 7.1 0.1 0.6 0.2 1.2 0.2 1.8v98.6c-0.2 2.7-1.2 5.2-3 7z"  horiz-adv-x="1024" />

    
    <glyph glyph-name="gitlab" unicode="&#59126;" d="M967.428571 336.914286l-124.571428 423.771428c-7.771429 23.314286-26.4 38.971429-51.314286 38.971429s-45.142857-14.057143-52.914286-37.371429l-82.514285-246.171428H368.228571L285.714286 762.171429c-7.771429 23.314286-28 37.371429-52.914286 37.371428s-45.142857-15.542857-51.314286-38.971428L57.028571 336.914286c-4.685714-15.542857 1.6-32.685714 14.057143-42.057143l440.457143-330.285714 441.942857 330.285714c12.342857 9.257143 18.628571 26.4 13.942857 42.057143z"  horiz-adv-x="1024" />

    
    <glyph glyph-name="MySQL" unicode="&#58939;" d="M922.624 885.248H105.984c-51.712 0-93.184-41.984-93.184-93.184v-816.64c0-51.712 41.984-93.184 93.184-93.184h177.664v64H105.984c-16.384 0-29.696 13.312-29.696 29.696V792.064c0 16.384 13.312 29.696 29.696 29.696h816.64c16.384 0 29.696-13.312 29.696-29.696v-583.168c-20.48 18.944-43.008 35.84-67.072 50.176-102.912 65.024-226.816 86.016-350.208 58.88 0 0-25.6-5.632-31.744-22.016-6.144-14.848 5.12-33.792 5.12-33.792 6.656-11.776 17.92-25.6 31.232-41.472 2.56-3.072 5.632-6.656 8.704-10.752-16.896 3.072-39.936 10.24-68.096 23.552-23.552 14.848-31.232 23.04-33.792 27.136 0 0-7.68 10.24-14.848 15.872-10.752 8.704-30.208-0.512-30.208-0.512-62.976-26.112-108.032-52.224-118.784-58.368l-4.096-2.048c-25.088-12.8-39.424-17.92-47.616-19.968 0 24.576 17.92 54.784 32.768 79.872 2.56 4.096 4.608 7.68 6.656 11.776l6.656 11.264-3.072 12.288c-9.728 40.448 13.824 98.816 41.472 130.048 25.088 24.576 120.832 92.672 243.712 98.304l19.968 0.512 14.848 18.944c18.944 24.064 77.312 51.712 119.808 66.56-7.168-11.264-14.336-22.528-19.456-33.28-16.896-35.328-6.656-54.784 5.632-65.024 3.584-3.072 9.216-6.656 16.384-8.192 45.568-16.896 87.04-39.424 124.416-67.584 21.504 28.672 13.824 70.144-17.408 88.064-21.504 12.288-43.52 23.04-66.56 32.256 5.632 10.24 13.824 22.016 18.944 30.208 12.8 19.456 23.552 35.84 27.648 50.176l2.56 8.704-2.56 8.704c-4.096 14.336-16.384 25.088-32.768 28.16-45.568 8.704-177.664-44.032-222.72-95.232C421.888 593.92 312.832 528.384 269.824 485.376l-1.024-1.024c-36.352-40.448-67.584-113.152-59.392-175.104-20.992-35.84-50.688-84.992-39.936-135.68v-0.512c4.096-16.896 14.336-29.696 29.184-36.352 31.744-14.848 72.704 3.584 109.056 22.016l4.608 2.56 2.048 1.024c7.168 4.096 41.984 24.576 92.672 46.592 9.728-9.216 22.528-18.944 40.448-30.208l3.072-1.536c64.512-31.232 148.48-52.224 175.104-7.68l1.024 2.048c13.824 28.16-9.216 55.808-38.912 90.624 93.184 11.776 185.344-8.192 262.656-57.344l0.512-0.512c37.376-23.04 70.656-52.224 98.816-87.04l1.536 1.024V-25.6c0-16.384-13.312-29.696-29.696-29.696h-188.928v-64H921.6c51.712 0 93.184 41.984 93.184 93.184V792.064c1.024 51.2-40.448 93.184-92.16 93.184zM392.704-54.272h66.56v-64h-66.56zM544.768-54.272h66.56v-64h-66.56z"  horiz-adv-x="1024" />

    
    <glyph glyph-name="riqi" unicode="&#58945;" d="M888.021333 768H768v27.989333a35.968 35.968 0 1 1-72.021333 0V768H328.021333v27.989333a35.968 35.968 0 1 1-71.978666 0V768H135.978667C96.256 768 64 735.786667 64 695.978667v-688c0-39.765333 32.213333-71.978667 72.021333-71.978667h752c39.765333 0 71.978667 32.298667 71.978667 72.021333V695.978667C960 735.744 927.786667 768 887.978667 768zM136.021333 695.978667H256v-19.968a35.968 35.968 0 1 1 72.021333 0v19.968h368v-19.968a35.968 35.968 0 1 1 71.978667 0v19.968h120.021333v-112H136.021333V695.978667z m752-688H136.021333V512h752v-504.021333zM505.301333 447.018667c-19.882667 0-35.968-14.421333-35.968-32.213334v-298.496c0-17.792 16.085333-32.170667 35.968-32.170666 19.882667 0 35.925333 14.378667 35.925334 32.170666v298.496c0 17.792-16.042667 32.213333-35.925334 32.213334z"  horiz-adv-x="1024" />

    
    <glyph glyph-name="icon_User" unicode="&#58912;" d="M798.293333-85.333333H225.706667a128 128 0 0 0-103.04 51.413333 124.16 124.16 0 0 0-21.333334 110.293333 428.8 428.8 0 0 0 248.533334 275.2A277.333333 277.333333 0 1 0 512 298.666667 343.253333 343.253333 0 0 1 184.106667 52.693333 39.253333 39.253333 0 0 1 192 17.493333a42.666667 42.666667 0 0 1 34.773333-17.493333h571.52a42.666667 42.666667 0 0 1 34.773334 17.493333 39.466667 39.466667 0 0 1 6.826666 35.413334 341.333333 341.333333 0 0 1-138.24 188.16 42.666667 42.666667 0 0 0 47.36 70.826666 426.666667 426.666667 0 0 0 172.8-234.666666 124.586667 124.586667 0 0 0-21.333333-110.506667A128 128 0 0 0 798.293333-85.333333zM512 768a192 192 0 0 1-3.84-384H512a192 192 0 0 1 0 384z"  horiz-adv-x="1024" />

    
    <glyph glyph-name="icon_Alendar" unicode="&#58914;" d="M746.666667 149.333333h-42.666667a42.666667 42.666667 0 0 0 0 85.333334h42.666667a42.666667 42.666667 0 0 0 0-85.333334zM533.333333 149.333333h-42.666666a42.666667 42.666667 0 0 0 0 85.333334h42.666666a42.666667 42.666667 0 0 0 0-85.333334zM320 149.333333h-42.666667a42.666667 42.666667 0 0 0 0 85.333334h42.666667a42.666667 42.666667 0 0 0 0-85.333334zM746.666667 320h-42.666667a42.666667 42.666667 0 0 0 0 85.333333h42.666667a42.666667 42.666667 0 0 0 0-85.333333zM533.333333 320h-42.666666a42.666667 42.666667 0 0 0 0 85.333333h42.666666a42.666667 42.666667 0 0 0 0-85.333333zM874.666667 490.666667H149.333333a42.666667 42.666667 0 0 0 0 85.333333h725.333334a42.666667 42.666667 0 0 0 0-85.333333zM661.333333 629.333333a42.666667 42.666667 0 0 0-42.666666 42.666667v128a42.666667 42.666667 0 0 0 85.333333 0v-128a42.666667 42.666667 0 0 0-42.666667-42.666667zM362.666667 629.333333a42.666667 42.666667 0 0 0-42.666667 42.666667v128a42.666667 42.666667 0 0 0 85.333333 0v-128a42.666667 42.666667 0 0 0-42.666666-42.666667zM704-21.333333H234.666667a128 128 0 0 0-128 128V661.333333a128 128 0 0 0 128 128h554.666666a128 128 0 0 0 128-128v-320a42.666667 42.666667 0 0 0-85.333333 0V661.333333a42.666667 42.666667 0 0 1-42.666667 42.666667H234.666667a42.666667 42.666667 0 0 1-42.666667-42.666667v-554.666666a42.666667 42.666667 0 0 1 42.666667-42.666667h469.333333a128 128 0 0 1 123.946667 96 42.666667 42.666667 0 1 0 82.773333-21.333333A213.333333 213.333333 0 0 0 704-21.333333z"  horiz-adv-x="1024" />

    
    <glyph glyph-name="icon_Call" unicode="&#58915;" d="M640 512m-42.666667 0a42.666667 42.666667 0 1 1 85.333334 0 42.666667 42.666667 0 1 1-85.333334 0ZM789.333333 469.333333a42.666667 42.666667 0 0 0-42.666666 42.666667 106.666667 106.666667 0 0 1-106.666667 106.666667 42.666667 42.666667 0 0 0 0 85.333333 192 192 0 0 0 192-192 42.666667 42.666667 0 0 0-42.666667-42.666667zM938.666667 469.333333a42.666667 42.666667 0 0 0-42.666667 42.666667A256 256 0 0 1 640 768a42.666667 42.666667 0 0 0 0 85.333333 341.333333 341.333333 0 0 0 341.333333-341.333333 42.666667 42.666667 0 0 0-42.666666-42.666667zM644.266667-85.333333a178.773333 178.773333 0 0 0-46.933334 6.186666l-5.546666 1.706667c-5.76 1.92-11.733333 4.266667-17.493334 6.613333a897.066667 897.066667 0 0 0-313.386666 204.586667A898.56 898.56 0 0 0 56.96 448l-6.186667 15.786667a40.746667 40.746667 0 0 0-2.346666 8.746666A158.506667 158.506667 0 0 0 42.666667 516.906667a170.666667 170.666667 0 0 0 50.56 121.173333l91.946666 91.946667A128 128 0 0 0 277.333333 768a128 128 0 0 0 91.306667-37.973333l61.226667-61.013334a129.92 129.92 0 0 0 0-183.04l-41.6-40.96A781.226667 781.226667 0 0 1 459.733333 362.666667a42.666667 42.666667 0 0 0-60.373333-60.16 922.88 922.88 0 0 0-79.36 89.6 86.4 86.4 0 0 0 7.466667 113.28l40.96 40.96a44.586667 44.586667 0 0 1 0 62.293333l-61.226667 61.013333A42.666667 42.666667 0 0 1 277.333333 682.666667a44.16 44.16 0 0 1-31.146666-12.8l-92.8-91.946667A85.333333 85.333333 0 0 1 128 516.266667a70.186667 70.186667 0 0 1 3.2-23.466667v-2.346667l4.693333-11.733333a816.853333 816.853333 0 0 1 185.386667-284.8 815.573333 815.573333 0 0 1 284.373333-185.173333l12.8-5.12h1.066667a87.253333 87.253333 0 0 1 85.333333 21.333333l93.013334 92.373333a35.84 35.84 0 0 1 5.546666 7.04 44.373333 44.373333 0 0 1-5.546666 55.04l-61.44 61.653334a44.16 44.16 0 0 1-62.08 0l-36.266667-36.266667a85.333333 85.333333 0 0 0-109.866667-9.813333 42.666667 42.666667 0 0 0 47.786667 70.4h1.28l36.48 36.266666a129.493333 129.493333 0 0 0 182.613333 0l61.44-61.653333a128 128 0 0 0 18.133334-160 113.28 113.28 0 0 0-18.986667-23.466667l-91.306667-91.093333A171.733333 171.733333 0 0 0 644.266667-85.333333z"  horiz-adv-x="1024" />

    
    <glyph glyph-name="icon_Folder" unicode="&#58919;" d="M746.666667 21.333333H192a128 128 0 0 0-128 128V661.333333a128 128 0 0 0 128 128h211.626667a128 128 0 0 0 104.746666-54.826666l4.48-6.4 94.08-133.76a42.666667 42.666667 0 0 1 34.773334-18.346667h158.293333a42.666667 42.666667 0 0 0 0-85.333333h-158.293333a128 128 0 0 0-104.746667 54.826666l-98.773333 140.586667A42.666667 42.666667 0 0 1 403.626667 704H192a42.666667 42.666667 0 0 1-42.666667-42.666667v-512a42.666667 42.666667 0 0 1 42.666667-42.666666h554.666667a128 128 0 0 1 128 128V576a42.666667 42.666667 0 0 1-42.666667 42.666667h-183.68a42.666667 42.666667 0 0 0 0 85.333333H832a128 128 0 0 0 128-128v-341.333333a213.333333 213.333333 0 0 0-213.333333-213.333334z"  horiz-adv-x="1024" />

    
    <glyph glyph-name="icon_Favorite" unicode="&#58920;" d="M512 213.333333a170.666667 170.666667 0 1 0 170.666667 170.666667 170.666667 170.666667 0 0 0-170.666667-170.666667z m0 256a85.333333 85.333333 0 1 1 85.333333-85.333333 85.333333 85.333333 0 0 1-85.333333 85.333333zM746.666667-45.44a91.093333 91.093333 0 0 0-42.666667 10.453333L514.56 64a5.333333 5.333333 0 0 1-5.12 0L320-34.986667a90.88 90.88 0 0 0-131.84 95.786667l36.053333 210.56a5.333333 5.333333 0 0 1-1.493333 4.906667l-152.96 149.333333a90.88 90.88 0 0 0 50.773333 154.666667l211.413334 30.72a5.76 5.76 0 0 1 4.053333 2.986666l94.506667 192a90.88 90.88 0 0 0 162.986666 0l94.506667-192a5.76 5.76 0 0 1 4.266667-2.986666l211.2-30.72a90.88 90.88 0 0 0 50.346666-155.093334l-152.96-149.333333a5.333333 5.333333 0 0 1-1.493333-4.906667 42.666667 42.666667 0 0 0-84.053333-14.506666 90.666667 90.666667 0 0 0 26.026666 80.426666l152.96 149.333334a5.333333 5.333333 0 0 1 1.493334 5.546666 5.333333 5.333333 0 0 1-4.48 3.84l-211.413334 30.72A90.666667 90.666667 0 0 0 611.413333 576l-94.506666 192a5.546667 5.546667 0 0 1-9.813334 0l-94.506666-192a90.666667 90.666667 0 0 0-68.48-49.706667l-211.413334-30.506666a5.333333 5.333333 0 0 1-4.48-3.84 5.333333 5.333333 0 0 1 1.493334-5.546667l152.96-149.333333a90.666667 90.666667 0 0 0 26.026666-81.066667l-36.053333-210.346667a5.12 5.12 0 0 1 2.133333-5.546666 5.546667 5.546667 0 0 1 5.973334 0L469.333333 139.946667a90.88 90.88 0 0 0 85.333334 0l189.013333-99.413334a5.546667 5.546667 0 0 1 5.973333 0 5.12 5.12 0 0 1 2.133334 5.546667 42.666667 42.666667 0 1 0 84.053333 14.293333 90.88 90.88 0 0 0-89.386667-106.666666z"  horiz-adv-x="1024" />

    
    <glyph glyph-name="icon_Email" unicode="&#58921;" d="M853.333333 45.013333H170.666667a128 128 0 0 0-128 128v426.666667a128 128 0 0 0 128 128h682.666666a128 128 0 0 0 128-128v-24.746667a42.666667 42.666667 0 0 0-21.333333-37.12l-332.8-187.52-5.12-2.986666a213.333333 213.333333 0 0 0-219.733333 0l-4.693334 2.773333-164.266666 92.586667a42.666667 42.666667 0 1 0 42.666666 74.24l165.546667-93.226667 3.84-2.346667 2.133333-1.066666a126.506667 126.506667 0 0 1 131.413334 0l2.773333 1.493333 3.2 1.92L896 599.893333a42.666667 42.666667 0 0 1-42.666667 42.666667H170.666667a42.666667 42.666667 0 0 1-42.666667-42.666667v-426.666666a42.666667 42.666667 0 0 1 42.666667-42.666667h682.666666a42.666667 42.666667 0 0 1 42.666667 42.666667V384a42.666667 42.666667 0 0 0 85.333333 0v-210.986667a128 128 0 0 0-128-128z"  horiz-adv-x="1024" />

    
    <glyph glyph-name="icon_Friends" unicode="&#58922;" d="M720-42.666667H176a123.946667 123.946667 0 0 0-99.626667 49.706667 120.32 120.32 0 0 0-19.84 106.666667 405.333333 405.333333 0 0 0 231.893334 261.546666 260.266667 260.266667 0 0 0-46.72 45.226667 265.6 265.6 0 1 0 471.68 158.933333A269.653333 269.653333 0 0 0 443.306667 322.133333 320 320 0 0 1 138.453333 90.026667a34.773333 34.773333 0 0 1 6.186667-31.573334 38.826667 38.826667 0 0 1 31.36-15.786666h544a38.826667 38.826667 0 0 1 31.36 15.786666 35.2 35.2 0 0 1 6.186667 31.786667 322.773333 322.773333 0 0 1-35.413334 79.146667 42.666667 42.666667 0 0 0-1.066666 42.666666 42.666667 42.666667 0 0 0 37.333333 21.333334h132.266667A170.666667 170.666667 0 0 1 725.333333 362.666667a42.666667 42.666667 0 0 0 0 85.333333 128 128 0 0 1 0 256 42.666667 42.666667 0 0 0 0 85.333333 213.333333 213.333333 0 0 0 133.973334-379.306666A256 256 0 0 0 981.333333 192a42.666667 42.666667 0 0 0-42.666666-42.666667h-111.36c4.48-11.52 8.533333-23.253333 12.16-35.413333a120.746667 120.746667 0 0 0-19.84-106.666667A123.946667 123.946667 0 0 0 720-42.666667zM448 768a202.88 202.88 0 0 1-25.386667-1.706667 180.48 180.48 0 0 1 11.52-358.4 16.213333 16.213333 0 0 0 4.48 0h3.84a184.533333 184.533333 0 0 1 186.24 174.506667A180.266667 180.266667 0 0 1 448 768z"  horiz-adv-x="1024" />

    
    <glyph glyph-name="icon_Home" unicode="&#58923;" d="M725.333333-85.333333H469.333333a85.333333 85.333333 0 0 0-85.333333 85.333333V234.666667a132.906667 132.906667 0 0 0 73.813333 116.053333A128 128 0 0 0 640 234.666667v-149.333334a42.666667 42.666667 0 0 0-85.333333 0v149.333334a42.666667 42.666667 0 0 1-12.586667 30.506666 44.373333 44.373333 0 0 1-50.133333 7.68A50.133333 50.133333 0 0 1 469.333333 234.666667v-234.666667h256a42.666667 42.666667 0 0 1 42.666667 42.666667V401.706667a42.666667 42.666667 0 0 0 42.666667 42.666666h24.96L542.293333 737.92a42.666667 42.666667 0 0 1-60.586666 0L188.373333 444.373333H213.333333a42.666667 42.666667 0 0 0 42.666667-42.666666v-355.626667A45.653333 45.653333 0 0 1 300.16 0a42.666667 42.666667 0 0 0-2.986667-85.333333A130.773333 130.773333 0 0 0 170.666667 46.08V359.04H85.333333a42.666667 42.666667 0 0 0-39.466666 26.24 42.666667 42.666667 0 0 0 9.386666 46.506667L421.546667 798.08a128 128 0 0 0 180.906666 0l366.293334-366.293333a42.666667 42.666667 0 0 0 9.386666-46.506667A42.666667 42.666667 0 0 0 938.666667 359.04h-85.333334V42.666667a128 128 0 0 0-128-128z"  horiz-adv-x="1024" />

    
    <glyph glyph-name="icon_List" unicode="&#58924;" d="M704 170.666667H362.666667a42.666667 42.666667 0 0 0 0 85.333333h341.333333a42.666667 42.666667 0 0 0 0-85.333333zM704 341.333333H362.666667a42.666667 42.666667 0 0 0 0 85.333334h341.333333a42.666667 42.666667 0 0 0 0-85.333334zM490.666667 512h-128a42.666667 42.666667 0 0 0 0 85.333333h128a42.666667 42.666667 0 0 0 0-85.333333zM686.933333 490.666667a42.666667 42.666667 0 0 0-30.506666 12.8l-89.6 91.52a42.666667 42.666667 0 0 0 61.013333 59.733333l59.093333-60.373333 178.56 182.186666a42.666667 42.666667 0 0 0 61.013334-59.733333l-209.066667-213.333333a42.666667 42.666667 0 0 0-30.506667-12.8zM725.333333-21.333333H256a128 128 0 0 0-128 128V661.333333a128 128 0 0 0 128 128h277.333333a42.666667 42.666667 0 0 0 0-85.333333H256a42.666667 42.666667 0 0 1-42.666667-42.666667v-554.666666a42.666667 42.666667 0 0 1 42.666667-42.666667h469.333333a128 128 0 0 1 128 128v192a42.666667 42.666667 0 0 0 85.333334 0v-192a213.333333 213.333333 0 0 0-213.333334-213.333333z"  horiz-adv-x="1024" />

    
    <glyph glyph-name="icon_Location" unicode="&#58925;" d="M512 298.666667a170.666667 170.666667 0 1 0 170.666667 170.666666 170.666667 170.666667 0 0 0-170.666667-170.666666z m0 256a85.333333 85.333333 0 1 1 85.333333-85.333334 85.333333 85.333333 0 0 1-85.333333 85.333334zM512-96.426667a42.666667 42.666667 0 0 0-30.08 12.586667l-256 256A405.333333 405.333333 0 0 0 512 864.426667a405.333333 405.333333 0 0 0 286.506667-691.84l-15.786667-16a42.666667 42.666667 0 0 0-60.373333 60.373333l16 15.786667A320 320 0 0 1 512 779.093333a320 320 0 0 1-226.346667-546.346666L512 6.613333l89.813333 89.813334A42.666667 42.666667 0 1 0 661.333333 36.053333l-120.106666-119.893333a42.666667 42.666667 0 0 0-29.226667-12.586667z"  horiz-adv-x="1024" />

    
    <glyph glyph-name="icon_Map" unicode="&#58926;" d="M288.853333 230.826667a42.666667 42.666667 0 0 0-30.08 72.746666l90.453334 90.453334a128 128 0 0 0 180.906666 0L576 348.8a42.666667 42.666667 0 0 1 60.373333 0l90.666667 90.666667a42.666667 42.666667 0 0 0 60.16-60.373334l-90.453333-90.453333a128 128 0 0 0-180.906667 0L469.333333 333.866667a42.666667 42.666667 0 0 1-60.373333 0L320 243.2a42.666667 42.666667 0 0 0-31.146667-12.373333zM597.333333 682.666667m-42.666666 0a42.666667 42.666667 0 1 1 85.333333 0 42.666667 42.666667 0 1 1-85.333333 0ZM597.333333 458.88a42.666667 42.666667 0 0 0-30.08 12.586667l-90.666666 90.453333a170.666667 170.666667 0 1 0 241.493333 0l-90.666667-90.453333a42.666667 42.666667 0 0 0-30.08-12.586667zM597.333333 768a85.333333 85.333333 0 0 1-60.373333-145.706667L597.333333 561.92l60.373334 60.373333A85.333333 85.333333 0 0 1 597.333333 768zM704-21.333333H234.666667a128 128 0 0 0-128 128V661.333333a128 128 0 0 0 128 128h106.666666a42.666667 42.666667 0 0 0 0-85.333333h-106.666666a42.666667 42.666667 0 0 1-42.666667-42.666667v-554.666666a42.666667 42.666667 0 0 1 42.666667-42.666667h469.333333a128 128 0 0 1 128 128V640a42.666667 42.666667 0 0 0 85.333333 0v-448a213.333333 213.333333 0 0 0-213.333333-213.333333z"  horiz-adv-x="1024" />

    
    <glyph glyph-name="icon_Notepad" unicode="&#58927;" d="M490.666667 277.333333h-128a42.666667 42.666667 0 0 0 0 85.333334h128a42.666667 42.666667 0 0 0 0-85.333334zM405.333333 426.666667h-42.666666a42.666667 42.666667 0 0 0 0 85.333333h42.666666a42.666667 42.666667 0 0 0 0-85.333333zM192 149.333333H64a42.666667 42.666667 0 0 0 0 85.333334h128a42.666667 42.666667 0 0 0 0-85.333334zM192 341.333333H64a42.666667 42.666667 0 0 0 0 85.333334h128a42.666667 42.666667 0 0 0 0-85.333334zM192 533.333333H64a42.666667 42.666667 0 0 0 0 85.333334h128a42.666667 42.666667 0 0 0 0-85.333334zM682.666667-21.333333H213.333333a128 128 0 0 0-128 128V661.333333a128 128 0 0 0 128 128h554.666667a128 128 0 0 0 128-128v-362.666666a42.666667 42.666667 0 0 0-42.666667-42.666667h-128a128 128 0 0 0 0 256h21.333334a42.666667 42.666667 0 0 0 0-85.333333h-21.333334a42.666667 42.666667 0 0 1 0-85.333334h85.333334V661.333333a42.666667 42.666667 0 0 1-42.666667 42.666667H213.333333a42.666667 42.666667 0 0 1-42.666666-42.666667v-554.666666a42.666667 42.666667 0 0 1 42.666666-42.666667h469.333334a128 128 0 0 1 123.946666 96 42.666667 42.666667 0 0 0 82.773334-21.333333A213.333333 213.333333 0 0 0 682.666667-21.333333z"  horiz-adv-x="1024" />

    
    <glyph glyph-name="icon_Read" unicode="&#58928;" d="M768 234.666667h-85.333333a42.666667 42.666667 0 0 0 0 85.333333h85.333333a42.666667 42.666667 0 0 0 0-85.333333zM768 405.333333h-85.333333a42.666667 42.666667 0 0 0 0 85.333334h85.333333a42.666667 42.666667 0 0 0 0-85.333334zM341.333333 234.666667h-85.333333a42.666667 42.666667 0 0 0 0 85.333333h85.333333a42.666667 42.666667 0 0 0 0-85.333333zM341.333333 405.333333h-85.333333a42.666667 42.666667 0 0 0 0 85.333334h85.333333a42.666667 42.666667 0 0 0 0-85.333334zM469.333333-30.72a85.333333 85.333333 0 0 0-21.333333 2.56l-341.333333 85.333333a85.333333 85.333333 0 0 0-64 82.773334V649.386667a85.333333 85.333333 0 0 0 106.666666 82.773333l247.253334-72.533333a42.666667 42.666667 0 0 0-23.893334-81.92L126.293333 649.813333 128 139.946667l341.333333-85.333334V564.053333a85.333333 85.333333 0 0 0 64 82.773334l341.333334 85.333333a85.333333 85.333333 0 0 0 106.666666-82.773333v-509.44a85.333333 85.333333 0 0 0-64-82.773334l-264.746666-76.8a42.666667 42.666667 0 0 0-23.893334 81.92l266.453334 77.226667 0.853333 509.866667-341.333333-85.333334v-509.44a85.333333 85.333333 0 0 0-85.333334-85.333333z"  horiz-adv-x="1024" />

    


  </font>
</defs>
</svg>
